<svg width="942" height="125" viewBox="0 0 942 125" fill="none" xmlns="http://www.w3.org/2000/svg">
<path d="M56.5814 121.326H171L147.163 96.5349H95.1977V22.1628L81.1337 5L67.0698 22.1628V35.5116" stroke="#B33B36" stroke-width="6"/>
<path d="M56.5814 71.7442L77.5581 47.907L67.0698 35.5116L56.5814 24.0698H17.4884M56.5814 71.7442H34.8895M56.5814 71.7442L77.5581 96.5349L67.0698 108.93L56.5814 121.326H34.8895H13.1977V96.5349V71.7442V51.4826V31.2209L7 24.0698H17.4884M17.4884 24.0698C5.28372 24.0698 14.7868 24.0698 17.4884 24.0698Z" stroke="#1A2F49" stroke-width="6"/>
<path d="M300.326 36.9062C308.692 36.9062 315.219 38.5339 319.906 41.7891C324.594 45.0443 326.938 49.9108 326.938 56.3887C326.938 59.6764 326.059 62.6224 324.301 65.2266C322.576 67.7982 320.053 69.735 316.732 71.0371C320.997 71.9486 324.187 73.9017 326.303 76.8965C328.451 79.8913 329.525 83.3581 329.525 87.2969C329.525 94.1003 327.279 99.2598 322.787 102.775C318.295 106.258 311.931 108 303.695 108H268.734V99.4551L276.303 97.9902V46.9648L268.734 45.5V36.9062H276.303H300.326ZM290.561 76.5547V97.0625H303.695C307.471 97.0625 310.352 96.2487 312.338 94.6211C314.324 92.9609 315.316 90.5195 315.316 87.2969C315.316 83.8138 314.47 81.1608 312.777 79.3379C311.085 77.4824 308.415 76.5547 304.77 76.5547H290.561ZM290.561 66.6914H300.814C304.623 66.6914 307.553 65.9102 309.604 64.3477C311.654 62.7852 312.68 60.5065 312.68 57.5117C312.68 54.224 311.638 51.7988 309.555 50.2363C307.504 48.6738 304.428 47.8926 300.326 47.8926H290.561V66.6914ZM374.152 101.311C372.46 103.785 370.36 105.689 367.854 107.023C365.38 108.358 362.548 109.025 359.357 109.025C353.791 109.025 349.429 107.251 346.271 103.703C343.114 100.122 341.535 94.5723 341.535 87.0527V65.2266L335.725 63.7617V55.168H341.535H355.793V87.1504C355.793 90.9915 356.428 93.7585 357.697 95.4512C358.999 97.1113 360.92 97.9414 363.459 97.9414C365.705 97.9414 367.642 97.5833 369.27 96.8672C370.93 96.1185 372.281 95.0605 373.322 93.6934V65.2266L367.072 63.7617V55.168H373.322H387.58V97.9902L393.977 99.4551V108H375.08L374.152 101.311ZM401.152 99.4551L408.037 97.9902V65.2266L400.42 63.7617V55.168H422.295V97.9902L429.131 99.4551V108H401.152V99.4551ZM422.295 42.5215H408.037V31.8281H422.295V42.5215ZM434.305 40.4219V31.8281H456.18V97.9902L463.064 99.4551V108H435.037V99.4551L441.922 97.9902V41.8867L434.305 40.4219ZM504.127 101.555C502.467 103.996 500.497 105.852 498.219 107.121C495.973 108.391 493.401 109.025 490.504 109.025C483.993 109.025 478.932 106.649 475.318 101.896C471.738 97.1439 469.947 90.8613 469.947 83.0488V82.0234C469.947 73.6901 471.754 66.9681 475.367 61.8574C478.98 56.7467 484.059 54.1914 490.602 54.1914C493.238 54.1914 495.615 54.7773 497.73 55.9492C499.846 57.0885 501.702 58.7161 503.297 60.832V41.8867L495.68 40.4219V31.8281H503.297H517.555V97.9902L524.391 99.4551V108H505.201L504.127 101.555ZM484.205 83.0488C484.205 87.6712 484.97 91.3171 486.5 93.9863C488.062 96.623 490.602 97.9414 494.117 97.9414C496.201 97.9414 498.007 97.5182 499.537 96.6719C501.067 95.8255 502.32 94.6048 503.297 93.0098V70.5977C502.32 68.9049 501.067 67.6029 499.537 66.6914C498.04 65.7474 496.266 65.2754 494.215 65.2754C490.732 65.2754 488.193 66.8216 486.598 69.9141C485.003 73.0065 484.205 77.043 484.205 82.0234V83.0488ZM556.225 109.025C548.607 109.025 542.52 106.584 537.963 101.701C533.406 96.8184 531.127 90.6172 531.127 83.0977V81.1445C531.127 73.2995 533.275 66.8379 537.572 61.7598C541.902 56.6816 547.696 54.1589 554.955 54.1914C562.084 54.1914 567.618 56.3398 571.557 60.6367C575.495 64.9336 577.465 70.7441 577.465 78.0684V85.832H545.922L545.824 86.125C546.085 89.6081 547.24 92.4727 549.291 94.7188C551.374 96.9648 554.19 98.0879 557.738 98.0879C560.896 98.0879 563.516 97.7786 565.6 97.1602C567.683 96.5091 569.962 95.5 572.436 94.1328L576.293 102.922C574.112 104.647 571.28 106.096 567.797 107.268C564.346 108.439 560.489 109.025 556.225 109.025ZM554.955 65.1777C552.318 65.1777 550.235 66.1868 548.705 68.2051C547.175 70.2233 546.231 72.8763 545.873 76.1641L546.02 76.4082H563.5V75.1387C563.5 72.1113 562.784 69.7025 561.352 67.9121C559.952 66.0892 557.82 65.1777 554.955 65.1777ZM587.326 99.4551L594.162 97.9902V65.2266L586.594 63.7617V55.168H607.443L608.078 62.8828C609.315 60.1484 610.91 58.0163 612.863 56.4863C614.816 54.9564 617.079 54.1914 619.65 54.1914C620.399 54.1914 621.18 54.2565 621.994 54.3867C622.84 54.4844 623.54 54.6146 624.094 54.7773L622.58 67.7656L616.721 67.6191C614.637 67.6191 612.912 68.026 611.545 68.8398C610.178 69.6536 609.136 70.8092 608.42 72.3066V97.9902L615.256 99.4551V108H587.326V99.4551ZM673.457 73.332H663.887L662.373 66.7402C661.396 65.959 660.16 65.3079 658.662 64.7871C657.197 64.2663 655.57 64.0059 653.779 64.0059C651.273 64.0059 649.287 64.5755 647.822 65.7148C646.357 66.8216 645.625 68.2214 645.625 69.9141C645.625 71.5091 646.325 72.8438 647.725 73.918C649.124 74.9596 651.924 75.8874 656.123 76.7012C662.666 78.0033 667.516 79.9238 670.674 82.4629C673.831 84.9694 675.41 88.4362 675.41 92.8633C675.41 97.6159 673.359 101.506 669.258 104.533C665.189 107.528 659.818 109.025 653.145 109.025C649.076 109.025 645.332 108.439 641.914 107.268C638.529 106.063 635.518 104.354 632.881 102.141L632.734 90.2754H642.695L644.648 97.1602C645.495 97.8763 646.65 98.4134 648.115 98.7715C649.58 99.097 651.11 99.2598 652.705 99.2598C655.602 99.2598 657.799 98.7389 659.297 97.6973C660.827 96.6556 661.592 95.2396 661.592 93.4492C661.592 91.8867 660.827 90.5358 659.297 89.3965C657.767 88.2572 654.951 87.248 650.85 86.3691C644.632 85.0996 639.928 83.2279 636.738 80.7539C633.581 78.2474 632.002 74.8457 632.002 70.5488C632.002 66.1217 633.825 62.3132 637.471 59.123C641.117 55.9004 646.309 54.2891 653.047 54.2891C657.148 54.2891 661.022 54.8424 664.668 55.9492C668.346 57.056 671.227 58.472 673.311 60.1973L673.457 73.332Z" fill="#C51929"/>
<path d="M710.709 108V103.703L718.668 103.068V41.8867L710.709 41.252V36.9062H718.668H724.527H732.486V41.252L724.527 41.8867V103.068H754.068L754.508 93.0586H759.684V108H710.709ZM794.789 109.025C788.148 109.025 782.647 106.6 778.285 101.75C773.923 96.8672 771.742 90.666 771.742 83.1465V80.4609C771.742 72.9089 773.907 66.6426 778.236 61.6621C782.598 56.6816 787.855 54.1914 794.008 54.1914C800.486 54.1914 805.58 56.2422 809.291 60.3438C813.002 64.4453 814.857 69.9141 814.857 76.75V81.7305H777.553V83.1465C777.553 89.071 779.132 94.0514 782.289 98.0879C785.479 102.092 789.646 104.094 794.789 104.094C798.402 104.094 801.495 103.589 804.066 102.58C806.638 101.571 808.835 100.122 810.658 98.2344L813.148 102.238C811.163 104.322 808.656 105.982 805.629 107.219C802.602 108.423 798.988 109.025 794.789 109.025ZM794.008 59.1719C789.711 59.1719 786.081 60.832 783.119 64.1523C780.189 67.4401 778.48 71.5742 777.992 76.5547L778.09 76.7988H809.047V75.334C809.047 70.7441 807.696 66.903 804.994 63.8105C802.292 60.7181 798.63 59.1719 794.008 59.1719ZM863.781 108C863.391 106.21 863.114 104.663 862.951 103.361C862.788 102.059 862.707 100.741 862.707 99.4062C860.754 102.173 858.15 104.468 854.895 106.291C851.639 108.114 847.977 109.025 843.908 109.025C838.732 109.025 834.729 107.691 831.896 105.021C829.064 102.352 827.648 98.7389 827.648 94.1816C827.648 89.2988 829.748 85.4251 833.947 82.5605C838.146 79.696 843.843 78.2637 851.037 78.2637H862.707V71.2812C862.707 67.5052 861.486 64.543 859.045 62.3945C856.636 60.2461 853.251 59.1719 848.889 59.1719C845.959 59.1719 843.273 59.5788 840.832 60.3926C838.423 61.1738 836.405 62.248 834.777 63.6152L834.289 70.6953H829.455L829.504 60.5391C831.945 58.651 834.859 57.1211 838.244 55.9492C841.662 54.7773 845.292 54.1914 849.133 54.1914C854.96 54.1914 859.647 55.6725 863.195 58.6348C866.743 61.597 868.518 65.8451 868.518 71.3789V97.3555C868.518 98.4297 868.534 99.4714 868.566 100.48C868.632 101.457 868.745 102.417 868.908 103.361L874.182 103.703V108H863.781ZM844.543 103.85C848.775 103.85 852.502 102.873 855.725 100.92C858.947 98.9668 861.275 96.444 862.707 93.3516V82.7559H850.939C845.633 82.7559 841.385 83.8626 838.195 86.0762C835.038 88.2572 833.459 91.0241 833.459 94.377C833.459 97.209 834.436 99.5039 836.389 101.262C838.374 102.987 841.092 103.85 844.543 103.85ZM921.201 100.383C919.443 103.15 917.181 105.282 914.414 106.779C911.647 108.277 908.392 109.025 904.648 109.025C898.333 109.025 893.385 106.665 889.805 101.945C886.257 97.2253 884.482 90.9264 884.482 83.0488V82.0234C884.482 73.5924 886.257 66.8542 889.805 61.8086C893.385 56.7305 898.366 54.1914 904.746 54.1914C908.424 54.1914 911.615 54.9727 914.316 56.5352C917.018 58.0651 919.264 60.2624 921.055 63.127V36.8086L913.096 36.1738V31.8281H921.055H926.914V103.068L934.873 103.703V108H921.689L921.201 100.383ZM890.391 83.0488C890.391 89.429 891.66 94.5072 894.199 98.2832C896.771 102.059 900.628 103.947 905.771 103.947C909.515 103.947 912.64 103.101 915.146 101.408C917.686 99.7155 919.655 97.388 921.055 94.4258V69.4258C919.753 66.431 917.865 63.9896 915.391 62.1016C912.949 60.2135 909.775 59.2695 905.869 59.2695C900.726 59.2695 896.852 61.3854 894.248 65.6172C891.676 69.8164 890.391 75.2852 890.391 82.0234V83.0488Z" fill="#162E4C"/>
</svg>
